<svg id="Capa_1" data-name="Capa 1" xmlns="http://www.w3.org/2000/svg" viewBox="0 0 431.21 400.36"><defs><style>.cls-1{fill:#71a64e;}.cls-2{fill:#d4a671;}.cls-3{fill:#d3492e;}.cls-4{fill:#fdc30b;}</style></defs><title>umami</title><path class="cls-1" d="M429.44,330.31c-12.66,0-25.59-8.14-38.12-16-10.81-6.77-22-13.8-30.52-13.8s-19.72,7-30.54,13.8c-12.53,7.86-25.47,16-38.12,16s-25.6-8.14-38.12-16c-10.81-6.77-22-13.8-30.53-13.8s-19.73,7-30.53,13.8c-12.53,7.86-25.46,16-38.13,16s-25.6-8.14-38.11-16c-10.81-6.77-22-13.8-30.54-13.8a7.13,7.13,0,1,1,0-14.26c12.65,0,25.61,8.12,38.12,16,10.81,6.78,22,13.81,30.53,13.81s19.73-7,30.53-13.81c12.54-7.87,25.47-16,38.13-16s25.6,8.12,38.12,16c10.81,6.78,22,13.81,30.53,13.81s19.72-7,30.54-13.81c12.5-7.87,25.46-16,38.12-16s25.6,8.12,38.11,16c10.8,6.78,22,13.81,30.53,13.81s19.73-7,30.54-13.81c12.51-7.87,25.46-16,38.12-16a7.13,7.13,0,1,1,0,14.26c-8.55,0-19.73,7-30.55,13.8C455.05,322.17,442.09,330.31,429.44,330.31Z" transform="translate(-76.61 -24.6)"/><path class="cls-2" d="M459.38,360.08H124.91c-19,0-33.71-21.73-33.71-40.42l.08-3a7.12,7.12,0,0,1,7.12-7.11h0a7.12,7.12,0,0,1,7.11,7.15l-.07,2.93c0,11.4,9.43,26.15,19.45,26.15H459.38c10,0,19.44-14.75,19.44-26.17l-.06-2.91a7.13,7.13,0,0,1,7.11-7.15h0a7.13,7.13,0,0,1,7.13,7.11l.06,2.92C493.08,338.35,478.37,360.08,459.38,360.08Z" transform="translate(-76.61 -24.6)"/><path class="cls-2" d="M115.32,132.45a7,7,0,0,1-3.27-.8,7.12,7.12,0,0,1-3.07-9.6c22.19-43.12,79.62-71.56,161.71-71.56a7.13,7.13,0,1,1,0,14.26c-76.48,0-129.4,25.69-149,63.83A7.11,7.11,0,0,1,115.32,132.45Z" transform="translate(-76.61 -24.6)"/><path class="cls-3" d="M112.87,278.45a39.82,39.82,0,0,1-18.73-4.33,31.82,31.82,0,0,1-12.9-12.06A34.57,34.57,0,0,1,76.61,244V205.83a6.58,6.58,0,0,1,6.58-6.58h1a6.57,6.57,0,0,1,6.58,6.58v38a23,23,0,0,0,3,12.06,20.72,20.72,0,0,0,8.11,7.82,22.61,22.61,0,0,0,10.85,2.73,22.9,22.9,0,0,0,11-2.73,21.36,21.36,0,0,0,8.2-7.82A22.67,22.67,0,0,0,135,243.85v-38a6.57,6.57,0,0,1,6.58-6.58h.94a6.58,6.58,0,0,1,6.59,6.58V244a34.05,34.05,0,0,1-4.71,18.06,32.57,32.57,0,0,1-12.89,12.06A39.43,39.43,0,0,1,112.87,278.45Z" transform="translate(-76.61 -24.6)"/><path class="cls-3" d="M159.12,276.62a6.57,6.57,0,0,1-6.58-6.58V230a33.4,33.4,0,0,1,4.09-16.38,30.29,30.29,0,0,1,11.84-11.84q7.72-4.4,18.66-4.4a40.44,40.44,0,0,1,10.62,1.45,29,29,0,0,1,9.86,4.85,24.22,24.22,0,0,1,7.29,9.18H215a27.1,27.1,0,0,1,7.59-9.18,29,29,0,0,1,9.87-4.85,40.87,40.87,0,0,1,10.77-1.45q10.77,0,18.51,4.4a30.26,30.26,0,0,1,11.83,11.84,33.41,33.41,0,0,1,4.1,16.38v40a6.58,6.58,0,0,1-6.59,6.58h-.79a6.58,6.58,0,0,1-6.58-6.58V230a20.26,20.26,0,0,0-20.64-20.63,20.81,20.81,0,0,0-10.61,2.81,21.2,21.2,0,0,0-7.67,7.43A19.66,19.66,0,0,0,222,230v40a6.58,6.58,0,0,1-6.59,6.58h-.79a6.58,6.58,0,0,1-6.58-6.58V230a19.67,19.67,0,0,0-2.81-10.39,21.37,21.37,0,0,0-7.59-7.43A20.71,20.71,0,0,0,187,209.41a20.09,20.09,0,0,0-10.4,2.73A20.53,20.53,0,0,0,166.5,230v40a6.58,6.58,0,0,1-6.59,6.58Z" transform="translate(-76.61 -24.6)"/><path class="cls-3" d="M318,278.45a34.54,34.54,0,0,1-19.42-5.39A35.19,35.19,0,0,1,286,258.42a47,47,0,0,1-4.4-20.49,43.34,43.34,0,0,1,4.85-20.55,36.55,36.55,0,0,1,14-14.57q9.11-5.38,21.85-5.39,12.29,0,21.09,5.32a36.15,36.15,0,0,1,13.58,14.41,43,43,0,0,1,4.78,20.33V270a6.58,6.58,0,0,1-6.59,6.58h-.94a6.58,6.58,0,0,1-6.58-6.58v-9.2h-.3a35.86,35.86,0,0,1-6.15,8.42,30.25,30.25,0,0,1-9.64,6.61A32.94,32.94,0,0,1,318,278.45Zm3.64-12A24.45,24.45,0,0,0,335,262.74a25.15,25.15,0,0,0,9.11-10.32,33,33,0,0,0,3.25-14.79,32.47,32.47,0,0,0-3.1-14.41,24,24,0,0,0-22.38-13.81,25.29,25.29,0,0,0-14,3.79,24.82,24.82,0,0,0-8.95,10.25,35.71,35.71,0,0,0-.08,29,24.44,24.44,0,0,0,8.81,10.25A24.79,24.79,0,0,0,321.6,266.46Z" transform="translate(-76.61 -24.6)"/><path class="cls-3" d="M371.65,276.62a6.58,6.58,0,0,1-6.59-6.58V230a33.41,33.41,0,0,1,4.1-16.38A30.26,30.26,0,0,1,381,201.82q7.74-4.4,18.67-4.4a40.42,40.42,0,0,1,10.61,1.45,29,29,0,0,1,9.87,4.85,24.11,24.11,0,0,1,7.28,9.18h.15a27.1,27.1,0,0,1,7.59-9.18,29,29,0,0,1,9.86-4.85,41,41,0,0,1,10.77-1.45q10.77,0,18.51,4.4a30.29,30.29,0,0,1,11.84,11.84A33.4,33.4,0,0,1,490.23,230v40a6.57,6.57,0,0,1-6.58,6.58h-.79a6.58,6.58,0,0,1-6.59-6.58V230a20.26,20.26,0,0,0-20.63-20.63A20.88,20.88,0,0,0,445,212.22a21.17,21.17,0,0,0-7.66,7.43A19.67,19.67,0,0,0,434.55,230v40a6.58,6.58,0,0,1-6.58,6.58h-.79A6.57,6.57,0,0,1,420.6,270V230a19.67,19.67,0,0,0-2.81-10.39,21.45,21.45,0,0,0-7.59-7.43,20.72,20.72,0,0,0-10.7-2.81,20.08,20.08,0,0,0-10.39,2.73A20.51,20.51,0,0,0,379,230v40a6.58,6.58,0,0,1-6.58,6.58Z" transform="translate(-76.61 -24.6)"/><path class="cls-4" d="M500.69,188.89a7.28,7.28,0,1,1,5-2.13A6.82,6.82,0,0,1,500.69,188.89Z" transform="translate(-76.61 -24.6)"/><rect class="cls-3" x="417.02" y="174.64" width="14.11" height="77.38" rx="6.58"/><path class="cls-4" d="M216.75,188.9H95.82a7.13,7.13,0,0,1,0-14.25H474.4a7.13,7.13,0,1,1,0,14.25h-64" transform="translate(-76.61 -24.6)"/><path class="cls-2" d="M465.71,168.14H118.57c-17.46,0-32-10.52-33.81-24.48a15.8,15.8,0,0,1-.2-3c0-71.81,93.15-116,207.66-116S499.74,68.8,499.74,140.4v.21a19.08,19.08,0,0,1-.25,3.45C497.73,157.62,483.2,168.14,465.71,168.14ZM292.22,38.86c-106.65,0-193.4,37.81-193.4,101.54,0,.13.05,1.29.07,1.43.87,6.64,9.69,12.06,19.68,12.06H465.71c10.18,0,18.82-5.3,19.69-12.06l.08-1.43C485.48,76.67,398.77,38.86,292.22,38.86Z" transform="translate(-76.61 -24.6)"/><path class="cls-3" d="M85.23,415.68a2.09,2.09,0,0,1-1.24-.34,1.11,1.11,0,0,1-.49-1v-32a1.3,1.3,0,0,1,.37-1,1.4,1.4,0,0,1,1-.35H95.72a9.42,9.42,0,0,1,4.53,1.09,8.89,8.89,0,0,1,3.29,3,8.21,8.21,0,0,1-.11,8.85,8.43,8.43,0,0,1-3.53,2.91,9.32,9.32,0,0,1,4.86,3.11,8.72,8.72,0,0,1,1.85,5.69,10.38,10.38,0,0,1-1.31,5.22,9.39,9.39,0,0,1-3.63,3.58,10.64,10.64,0,0,1-5.28,1.29Zm.93-20.05h9.56a6.4,6.4,0,0,0,4.6-1.71,6,6,0,0,0,1.8-4.55,5.21,5.21,0,0,0-1.8-4.25,7,7,0,0,0-4.6-1.49H86.16Zm0,17.38H96.39a7.89,7.89,0,0,0,3.91-.95,7.14,7.14,0,0,0,2.66-2.63,7.46,7.46,0,0,0,1-3.84,7.29,7.29,0,0,0-1-3.78,7.09,7.09,0,0,0-2.66-2.58,8,8,0,0,0-3.91-.93H86.16Z" transform="translate(-76.61 -24.6)"/><path class="cls-3" d="M123.85,416a12.34,12.34,0,0,1-5.73-1.31,10,10,0,0,1-4-3.85,12,12,0,0,1-1.48-6.17v-12a1.28,1.28,0,0,1,1.33-1.33,1.3,1.3,0,0,1,1.33,1.33v12a9.37,9.37,0,0,0,1.14,4.82,7.16,7.16,0,0,0,3.06,2.89,9.85,9.85,0,0,0,4.38.95,9.71,9.71,0,0,0,4.31-.93,7.8,7.8,0,0,0,3-2.51,6.08,6.08,0,0,0,1.11-3.58h2.23a9.87,9.87,0,0,1-1.65,4.95,10.47,10.47,0,0,1-3.8,3.47A10.7,10.7,0,0,1,123.85,416Zm9.78-.31a1.3,1.3,0,0,1-1.34-1.34V392.7a1.3,1.3,0,0,1,.38-1,1.37,1.37,0,0,1,1-.35A1.23,1.23,0,0,1,135,392.7v21.64a1.33,1.33,0,0,1-.36,1A1.26,1.26,0,0,1,133.63,415.68Z" transform="translate(-76.61 -24.6)"/><path class="cls-3" d="M144.29,415.68a1.3,1.3,0,0,1-.95-.38,1.27,1.27,0,0,1-.38-1V392.7a1.27,1.27,0,0,1,.38-1,1.51,1.51,0,0,1,1.93,0,1.33,1.33,0,0,1,.36,1v21.64a1.33,1.33,0,0,1-.36,1A1.29,1.29,0,0,1,144.29,415.68Zm-.44-14.85a12.12,12.12,0,0,1,1.55-5,9.59,9.59,0,0,1,3.34-3.44,8.53,8.53,0,0,1,4.53-1.25,6.76,6.76,0,0,1,2.62.4,1.13,1.13,0,0,1,.71,1.42.9.9,0,0,1-.62.8,2.86,2.86,0,0,1-1.18,0,9,9,0,0,0-1.53-.12,8.16,8.16,0,0,0-4,.94,6.94,6.94,0,0,0-2.71,2.55,7.06,7.06,0,0,0-1,3.71Z" transform="translate(-76.61 -24.6)"/><path class="cls-3" d="M171.76,415.94a12.75,12.75,0,0,1-6.45-1.6,11.62,11.62,0,0,1-4.4-4.4,12.72,12.72,0,0,1-1.6-6.4A12.47,12.47,0,0,1,161,397.1a11.85,11.85,0,0,1,4.46-4.4,13.52,13.52,0,0,1,12.76,0,11.71,11.71,0,0,1,4.38,4.4,12.84,12.84,0,0,1,1.6,6.44l-1.56,1.78a10.84,10.84,0,0,1-1.38,5.51,9.86,9.86,0,0,1-3.82,3.76A11.48,11.48,0,0,1,171.76,415.94Zm.17,9a12.87,12.87,0,0,1-10.57-4.89,1.48,1.48,0,0,1-.36-.94,1.06,1.06,0,0,1,.45-.84,1.36,1.36,0,0,1,1-.22,1.26,1.26,0,0,1,.91.57,11.13,11.13,0,0,0,3.51,2.74,11,11,0,0,0,5,1.09,9.17,9.17,0,0,0,4.92-1.34,9.52,9.52,0,0,0,3.4-3.66,11.05,11.05,0,0,0,1.24-5.22v-7.07l1.2-1.65h1.47v8.72a13.19,13.19,0,0,1-1.6,6.48,12,12,0,0,1-4.36,4.56A11.9,11.9,0,0,1,171.93,425Zm-.17-11.51a10,10,0,0,0,5-1.27,9.09,9.09,0,0,0,3.45-3.51,11.34,11.34,0,0,0,0-10.31,9,9,0,0,0-3.45-3.51,9.88,9.88,0,0,0-5-1.27,10,10,0,0,0-5.07,1.27,8.94,8.94,0,0,0-3.47,3.51,11.34,11.34,0,0,0,0,10.31,9.07,9.07,0,0,0,3.47,3.51A10.1,10.1,0,0,0,171.76,413.46Z" transform="translate(-76.61 -24.6)"/><path class="cls-3" d="M201.58,415.9a12.33,12.33,0,0,1-6.25-1.58,11.29,11.29,0,0,1-4.29-4.38,13,13,0,0,1-1.55-6.4,13.54,13.54,0,0,1,1.47-6.42,11.16,11.16,0,0,1,4-4.38,11.81,11.81,0,0,1,11.73-.06,10.67,10.67,0,0,1,4,4.22,13,13,0,0,1,1.42,6.2,1.17,1.17,0,0,1-.36.91,1.29,1.29,0,0,1-.93.33H191.27V402h20.26l-1.95,1.47a10.87,10.87,0,0,0-1-5.11,8.3,8.3,0,0,0-3-3.49,8.42,8.42,0,0,0-4.64-1.27,8.22,8.22,0,0,0-4.51,1.27,8.71,8.71,0,0,0-3.11,3.49,11.13,11.13,0,0,0-1.13,5.15,10.64,10.64,0,0,0,1.2,5.12,8.85,8.85,0,0,0,3.33,3.48,9.33,9.33,0,0,0,4.89,1.27,10.76,10.76,0,0,0,3.49-.6,7.42,7.42,0,0,0,2.77-1.58,1.28,1.28,0,0,1,.87-.37,1.2,1.2,0,0,1,.87.28,1.28,1.28,0,0,1,.51.89,1.13,1.13,0,0,1-.42.89,11.23,11.23,0,0,1-3.72,2.13A12.44,12.44,0,0,1,201.58,415.9Z" transform="translate(-76.61 -24.6)"/><path class="cls-3" d="M219.22,415.68a1.32,1.32,0,0,1-1-.38,1.3,1.3,0,0,1-.37-1V392.7a1.3,1.3,0,0,1,.37-1,1.38,1.38,0,0,1,1-.35,1.35,1.35,0,0,1,1,.35,1.37,1.37,0,0,1,.35,1v21.64a1.37,1.37,0,0,1-.35,1A1.29,1.29,0,0,1,219.22,415.68Zm-.44-14.85a12,12,0,0,1,1.55-5,9.65,9.65,0,0,1,3.33-3.44,8.59,8.59,0,0,1,4.54-1.25,6.79,6.79,0,0,1,2.62.4,1.13,1.13,0,0,1,.71,1.42.92.92,0,0,1-.62.8,2.86,2.86,0,0,1-1.18,0,9,9,0,0,0-1.53-.12,8.16,8.16,0,0,0-4,.94,6.94,6.94,0,0,0-2.71,2.55,7.06,7.06,0,0,0-1,3.71Z" transform="translate(-76.61 -24.6)"/><path class="cls-3" d="M257.75,415.77a11.07,11.07,0,0,1-5-1,7.77,7.77,0,0,1-3.22-2.84,7.45,7.45,0,0,1-1.14-4.07,9.21,9.21,0,0,1,1.58-5.15,24.14,24.14,0,0,1,5.36-5.34l3.77-2.89a12.1,12.1,0,0,0,2.8-3A6.25,6.25,0,0,0,263,388a4.74,4.74,0,0,0-1.31-3.36,4.84,4.84,0,0,0-3.71-1.4,4.69,4.69,0,0,0-3.4,1.32,4.19,4.19,0,0,0-1.35,3.13,6.08,6.08,0,0,0,.6,2.73,9.42,9.42,0,0,0,1.71,2.38l19.73,19.73a1.72,1.72,0,0,1,.58.85,1,1,0,0,1-.4.88,1.13,1.13,0,0,1-1.87,0L253.62,394.3a11.34,11.34,0,0,1-2.22-3.11,7.88,7.88,0,0,1-.85-3.51,6.49,6.49,0,0,1,1-3.51,6.87,6.87,0,0,1,2.67-2.45,8,8,0,0,1,3.77-.89,8.14,8.14,0,0,1,3.94.94,7.15,7.15,0,0,1,2.71,2.55,6.65,6.65,0,0,1,.95,3.67,7.21,7.21,0,0,1-.69,3.11,10.84,10.84,0,0,1-1.84,2.73,19.71,19.71,0,0,1-2.67,2.43l-3.77,2.88a20.23,20.23,0,0,0-3.43,3.25,9.81,9.81,0,0,0-1.66,2.87,8.23,8.23,0,0,0-.47,2.68,4.93,4.93,0,0,0,1.78,3.85,7.32,7.32,0,0,0,5,1.58,7.23,7.23,0,0,0,3.82-1.11,19.07,19.07,0,0,0,3.82-3.25l6.94-7.33a1.58,1.58,0,0,1,.89-.54,1.24,1.24,0,0,1,.88.4,1.08,1.08,0,0,1,.05,1.78l-6.93,7.38a21,21,0,0,1-4.65,3.75A9.64,9.64,0,0,1,257.75,415.77Z" transform="translate(-76.61 -24.6)"/><path class="cls-3" d="M297.21,415.68a2.11,2.11,0,0,1-1.24-.34,1.11,1.11,0,0,1-.49-1v-32a1.3,1.3,0,0,1,.38-1,1.36,1.36,0,0,1,.95-.35H307.7a9.49,9.49,0,0,1,4.54,1.09,8.78,8.78,0,0,1,3.28,3,7.72,7.72,0,0,1,1.25,4.34,7.61,7.61,0,0,1-1.36,4.51,8.43,8.43,0,0,1-3.53,2.91,9.34,9.34,0,0,1,4.87,3.11,8.77,8.77,0,0,1,1.84,5.69,10.38,10.38,0,0,1-1.31,5.22,9.3,9.3,0,0,1-3.62,3.58,10.68,10.68,0,0,1-5.29,1.29Zm.94-20.05h9.55a6.4,6.4,0,0,0,4.6-1.71,6,6,0,0,0,1.8-4.55,5.21,5.21,0,0,0-1.8-4.25,7,7,0,0,0-4.6-1.49h-9.55Zm0,17.38h10.22a7.89,7.89,0,0,0,3.91-.95,7.17,7.17,0,0,0,2.67-2.63,7.46,7.46,0,0,0,1-3.84,7.29,7.29,0,0,0-1-3.78,7.11,7.11,0,0,0-2.67-2.58,8,8,0,0,0-3.91-.93H298.15Z" transform="translate(-76.61 -24.6)"/><path class="cls-3" d="M326.37,415.68a1.3,1.3,0,0,1-1.34-1.34V392.7a1.3,1.3,0,0,1,.38-1,1.37,1.37,0,0,1,1-.35,1.23,1.23,0,0,1,1.33,1.33v21.64a1.33,1.33,0,0,1-.36,1A1.26,1.26,0,0,1,326.37,415.68Zm-.45-14.85a12.13,12.13,0,0,1,1.56-5,9.65,9.65,0,0,1,3.33-3.44,8.53,8.53,0,0,1,4.53-1.25,6.85,6.85,0,0,1,2.63.4,1.13,1.13,0,0,1,.71,1.42.92.92,0,0,1-.62.8,2.86,2.86,0,0,1-1.18,0,9,9,0,0,0-1.54-.12,8.09,8.09,0,0,0-3.95.94,6.87,6.87,0,0,0-2.71,2.55,7.06,7.06,0,0,0-1,3.71Z" transform="translate(-76.61 -24.6)"/><path class="cls-3" d="M353.48,415.9a12.3,12.3,0,0,1-6.25-1.58,11.29,11.29,0,0,1-4.29-4.38,13,13,0,0,1-1.55-6.4,13.66,13.66,0,0,1,1.46-6.42,11.26,11.26,0,0,1,4-4.38,11.81,11.81,0,0,1,11.73-.06,10.67,10.67,0,0,1,4,4.22,13,13,0,0,1,1.42,6.2,1.17,1.17,0,0,1-.36.91,1.29,1.29,0,0,1-.93.33H343.17V402h20.26l-1.95,1.47a10.87,10.87,0,0,0-1-5.11,8.3,8.3,0,0,0-3.05-3.49,8.42,8.42,0,0,0-4.64-1.27,8.22,8.22,0,0,0-4.51,1.27,8.71,8.71,0,0,0-3.11,3.49,11.13,11.13,0,0,0-1.14,5.15,10.75,10.75,0,0,0,1.2,5.12,9,9,0,0,0,3.34,3.48,9.33,9.33,0,0,0,4.89,1.27,10.76,10.76,0,0,0,3.49-.6,7.42,7.42,0,0,0,2.77-1.58,1.28,1.28,0,0,1,.87-.37,1.2,1.2,0,0,1,.87.28,1.28,1.28,0,0,1,.51.89,1.13,1.13,0,0,1-.42.89,11.23,11.23,0,0,1-3.72,2.13A12.44,12.44,0,0,1,353.48,415.9Z" transform="translate(-76.61 -24.6)"/><path class="cls-3" d="M380,415.94a12.58,12.58,0,0,1-6.38-1.62,11.83,11.83,0,0,1-4.44-4.44,13.27,13.27,0,0,1,0-12.71,11.85,11.85,0,0,1,4.44-4.45A12.58,12.58,0,0,1,380,391.1a12.42,12.42,0,0,1,6.35,1.62,12,12,0,0,1,4.43,4.45,12.55,12.55,0,0,1,1.62,6.37l-1.11,1.78a10.08,10.08,0,0,1-1.49,5.42,10.72,10.72,0,0,1-4,3.8A11.69,11.69,0,0,1,380,415.94Zm0-2.48a9.52,9.52,0,0,0,8.47-4.87,10.81,10.81,0,0,0,0-10.13,9.77,9.77,0,0,0-17,0,10.59,10.59,0,0,0,0,10.13,9.65,9.65,0,0,0,8.49,4.87Zm11.11,2.22a1.35,1.35,0,0,1-1-.38,1.3,1.3,0,0,1-.38-1v-8.13l.85-2.67h1.82v10.8a1.33,1.33,0,0,1-.36,1A1.22,1.22,0,0,1,391.12,415.68Z" transform="translate(-76.61 -24.6)"/><path class="cls-3" d="M400.41,415.68a1.3,1.3,0,0,1-1.34-1.34v-32a1.3,1.3,0,0,1,.38-1,1.37,1.37,0,0,1,1-.35,1.23,1.23,0,0,1,1.33,1.33v32a1.33,1.33,0,0,1-.36,1A1.26,1.26,0,0,1,400.41,415.68Zm.44-7.6-1.6-1.78,16.27-14.8a1.35,1.35,0,0,1,.86-.35,1.13,1.13,0,0,1,.83.44,1.37,1.37,0,0,1,.4.89,1,1,0,0,1-.45.8Zm16.4,7.37a1.12,1.12,0,0,1-.91.34,1.31,1.31,0,0,1-.82-.51L405,402.39l1.92-1.56,10.53,12.89a1.32,1.32,0,0,1,.33.89A1.14,1.14,0,0,1,417.25,415.45Z" transform="translate(-76.61 -24.6)"/><path class="cls-3" d="M423.12,394.66a1.18,1.18,0,0,1-.87-.34,1.2,1.2,0,0,1,.87-2.06h12a1.19,1.19,0,0,1,.87.33,1.3,1.3,0,0,1,0,1.73,1.2,1.2,0,0,1-.87.34Zm4.8,21a1.3,1.3,0,0,1-1.34-1.34v-23a14.15,14.15,0,0,1,.94-5.35,7.76,7.76,0,0,1,2.91-3.67,8.81,8.81,0,0,1,5-1.33,1.4,1.4,0,0,1,1,.33,1.24,1.24,0,0,1,0,1.73,1.36,1.36,0,0,1-1,.34,5.35,5.35,0,0,0-5.58,3.89,12.79,12.79,0,0,0-.6,4.06v23a1.3,1.3,0,0,1-.37,1A1.38,1.38,0,0,1,427.92,415.68Z" transform="translate(-76.61 -24.6)"/><path class="cls-3" d="M451,415.94a12.58,12.58,0,0,1-6.38-1.62,11.93,11.93,0,0,1-4.45-4.44,13.27,13.27,0,0,1,0-12.71,12,12,0,0,1,4.45-4.45A12.58,12.58,0,0,1,451,391.1a12.45,12.45,0,0,1,6.35,1.62,11.87,11.87,0,0,1,4.42,4.45,12.55,12.55,0,0,1,1.62,6.37l-1.11,1.78a10,10,0,0,1-1.49,5.42,10.72,10.72,0,0,1-4,3.8A11.65,11.65,0,0,1,451,415.94Zm0-2.48a9.49,9.49,0,0,0,8.46-4.87,10.74,10.74,0,0,0,0-10.13A9.53,9.53,0,0,0,456,394.9a9.8,9.8,0,0,0-13.49,3.56,10.59,10.59,0,0,0,0,10.13,9.65,9.65,0,0,0,8.49,4.87Zm11.11,2.22a1.35,1.35,0,0,1-1-.38,1.27,1.27,0,0,1-.38-1v-8.13l.84-2.67h1.82v10.8a1.32,1.32,0,0,1-.35,1A1.24,1.24,0,0,1,462.14,415.68Z" transform="translate(-76.61 -24.6)"/><path class="cls-3" d="M478.36,415.94a15.43,15.43,0,0,1-4.85-.84,9.24,9.24,0,0,1-4.22-2.84,1.25,1.25,0,0,1-.29-1,1.28,1.28,0,0,1,.56-.87,1.25,1.25,0,0,1,.95-.22,1.3,1.3,0,0,1,.83.49,6.75,6.75,0,0,0,3.13,2.11,12.93,12.93,0,0,0,4,.6q3.74,0,5.29-1.33a4,4,0,0,0,1.55-3.11,3.37,3.37,0,0,0-1.66-2.87,12.26,12.26,0,0,0-5.14-1.62,13.16,13.16,0,0,1-6.57-2.4,5.26,5.26,0,0,1-2.14-4.14,6.21,6.21,0,0,1,1.11-3.75,6.81,6.81,0,0,1,3.05-2.31,11.73,11.73,0,0,1,4.42-.78,10.88,10.88,0,0,1,5.11,1.09,9.48,9.48,0,0,1,3.38,2.91,1.08,1.08,0,0,1,.24,1,1.23,1.23,0,0,1-.68.82,1.45,1.45,0,0,1-.94.13,1.4,1.4,0,0,1-.84-.53,7.28,7.28,0,0,0-2.69-2.16,8.62,8.62,0,0,0-3.67-.73,7,7,0,0,0-4.35,1.2,3.55,3.55,0,0,0-1.56,2.89,3.3,3.3,0,0,0,.65,2,4.81,4.81,0,0,0,2.11,1.47,16.66,16.66,0,0,0,3.91.95,15.22,15.22,0,0,1,5.26,1.51,7,7,0,0,1,2.76,2.47,5.79,5.79,0,0,1,.82,3,5.4,5.4,0,0,1-1.33,3.64,8.45,8.45,0,0,1-3.51,2.38A13.17,13.17,0,0,1,478.36,415.94Z" transform="translate(-76.61 -24.6)"/><path class="cls-3" d="M492,394.66a1.2,1.2,0,0,1-.87-.34,1.3,1.3,0,0,1,0-1.73,1.19,1.19,0,0,1,.87-.33h12a1.2,1.2,0,1,1,0,2.4Zm11.87,21a9,9,0,0,1-4.36-1.14,7.66,7.66,0,0,1-3-3,8.93,8.93,0,0,1-1.06-4.38V385a1.36,1.36,0,0,1,.37-1,1.32,1.32,0,0,1,1-.38,1.31,1.31,0,0,1,1.38,1.38v22.13a5.71,5.71,0,0,0,1.6,4.2,5.51,5.51,0,0,0,4.13,1.63h1a1.36,1.36,0,0,1,1,.37,1.38,1.38,0,0,1,.38,1,1.3,1.3,0,0,1-.38,1,1.37,1.37,0,0,1-1,.38Z" transform="translate(-76.61 -24.6)"/></svg>